# xmcd
#
# Track frame offsets: 
#        150
#        13157
#        26874
#        38811
#        51200
#        65706
#        77408
#        88779
#        99734
#        112021
#        123791
#        134011
#        144423
#        152447
#        161671
#        170732
#        182596
#        194801
#        208030
#        221348
#
# Disc length: 3112 seconds
#
# Revision: 0
# Processed by: cddbd v1.5.2PL0 Copyright (c) Steve Scherf et al.
# Submitted via: ExactAudioCopyFreeDBPlugin 1.0
#
DISCID=250c2614
DTITLE=Various Artist - Blues, Blues Christmas: Volume 4 - 1925-1962 [CD1]
DYEAR=2014
DGENRE=Christmas
TTITLE0=Charles Brown - Please Come Home For Christmas
TTITLE1=Roy Milton and His Solid Senders - Christmas Time Blues
TTITLE2=The Drifters - White Christmas
TTITLE3=Arthur Guitar Boogie Smith's Sensational Trio - Guitar Jingle 
TTITLE3=Bells
TTITLE4=Peetie Wheatstraw - Santa Claus Blues
TTITLE5=Clarence Williams' Blue Five - Santa Claus Blues
TTITLE6=Bob Wills and His Texas Playboys - Santa's On His Way
TTITLE7=Sam Manning with The Melodettes and The Felix Krazy Cats - Looki
TTITLE7=ng For Me Santa Claus
TTITLE8=The Qualities - It's Christmas Time
TTITLE9=Freddy King - I Hear Jingle Bells
TTITLE10=Champion Jack Dupree - Santa Claus Blues (take 2)
TTITLE11=The Cadillacs - Rudolph The Red Nosed Reindeer
TTITLE12=The Marquees - Santa Done Got Hip
TTITLE13=Bobby and Boobie - Cool Cool Christmas
TTITLE14=Chuck Blevins - Sleighbell Rock
TTITLE15=The Enchanters - Mambo Santa Mambo
TTITLE16=Bill Lacey with Lil Armstrong and Her Ebony-Aires - Cowboy Sant
TTITLE16=a Claus
TTITLE17=The Mighty Spoiler - Father Christmas
TTITLE18=Jackson Trio with The Ebonaires - Love For Christmas
TTITLE19=Billy Ward and His Dominoes - Christmas In Heaven
EXTD=
EXTT0=
EXTT1=
EXTT2=
EXTT3=
EXTT4=
EXTT5=
EXTT6=
EXTT7=
EXTT8=
EXTT9=
EXTT10=
EXTT11=
EXTT12=
EXTT13=
EXTT14=
EXTT15=
EXTT16=
EXTT17=
EXTT18=
EXTT19=
PLAYORDER=
